<svg xmlns="http://www.w3.org/2000/svg" xmlns:xlink="http://www.w3.org/1999/xlink" width="83.338" height="62.714" viewBox="0 0 83.338 62.714">
  <defs>
    <clipPath id="clip-path">
      <rect width="52" height="48" fill="none"/>
    </clipPath>
  </defs>
  <g id="Group_12" data-name="Group 12" transform="translate(-1122.662 -1154)">
    <circle id="Ellipse_3" data-name="Ellipse 3" cx="31.357" cy="31.357" r="31.357" transform="translate(1122.662 1154)" fill="#55dfb4"/>
    <g id="Catalog" transform="translate(1154 1160)" clip-path="url(#clip-path)">
      <path id="Path_243" data-name="Path 243" d="M51.486,26.57H.514A.51.51,0,0,0,0,27.076V62.064a.51.51,0,0,0,.514.506H51.486A.51.51,0,0,0,52,62.064V27.076a.51.51,0,0,0-.514-.506ZM2.849,59.762V29.378h46.3V59.762Z" transform="translate(0 -14.57)"/>
      <path id="Path_244" data-name="Path 244" d="M5.839,20.71H51.011a1.5,1.5,0,0,0,0-3H5.839a1.5,1.5,0,0,0,0,3Z" transform="translate(-3.425 -9.71)"/>
      <path id="Path_245" data-name="Path 245" d="M12.5,11.86H52.648a1.5,1.5,0,0,0,0-3H12.5a1.5,1.5,0,0,0,0,3Z" transform="translate(-7.076 -4.86)"/>
      <path id="Path_246" data-name="Path 246" d="M19.123,3H53.307a1.456,1.456,0,0,0,1.408-1.5A1.456,1.456,0,0,0,53.307,0H19.123a1.456,1.456,0,0,0-1.408,1.5A1.456,1.456,0,0,0,19.123,3Z" transform="translate(-10.715)"/>
    </g>
  </g>
</svg>
